{
  "accessors": [
    {
      "bufferView": 1,
      "componentType": 5126,
      "count": 2304,
      "max": [
        1.0099999904632568,
        1.0100001096725464,
        0.010000000707805157
      ],
      "min": [
        -1.0099999904632568,
        -1.0100001096725464,
        -0.010000000707805157
      ],
      "type": "VEC3"
    },
    {
      "bufferView": 1,
      "byteOffset": 27648,
      "componentType": 5126,
      "count": 2304,
      "max": [
        0.9639959931373596,
        0.9639955163002014,
        0.9657881259918213
      ],
      "min": [
        -0.9639961123466492,
        -0.9639958143234253,
        -0.9657881259918213
      ],
      "type": "VEC3"
    },
    {
      "bufferView": 0,
      "componentType": 5125,
      "count": 3456,
      "type": "SCALAR"
    },
    {
      "bufferView": 1,
      "byteOffset": 55296,
      "componentType": 5126,
      "count": 2304,
      "max": [
        1.0099999904632568,
        1.0100001096725464,
        0.010000000707805157
      ],
      "min": [
        -1.0099999904632568,
        -1.0100001096725464,
        -0.010000000707805157
      ],
      "type": "VEC3"
    },
    {
      "bufferView": 1,
      "byteOffset": 82944,
      "componentType": 5126,
      "count": 2304,
      "max": [
        0.9639959931373596,
        0.9639955163002014,
        0.9657881259918213
      ],
      "min": [
        -0.9639961123466492,
        -0.9639958143234253,
        -0.9657881259918213
      ],
      "type": "VEC3"
    },
    {
      "bufferView": 0,
      "byteOffset": 13824,
      "componentType": 5125,
      "count": 3456,
      "type": "SCALAR"
    },
    {
      "bufferView": 1,
      "byteOffset": 110592,
      "componentType": 5126,
      "count": 2304,
      "max": [
        1.0099999904632568,
        1.0100001096725464,
        0.010000000707805157
      ],
      "min": [
        -1.0099999904632568,
        -1.0100001096725464,
        -0.010000000707805157
      ],
      "type": "VEC3"
    },
    {
      "bufferView": 1,
      "byteOffset": 138240,
      "componentType": 5126,
      "count": 2304,
      "max": [
        0.9639959931373596,
        0.9639955163002014,
        0.9657881259918213
      ],
      "min": [
        -0.9639961123466492,
        -0.9639958143234253,
        -0.9657881259918213
      ],
      "type": "VEC3"
    },
    {
      "bufferView": 0,
      "byteOffset": 27648,
      "componentType": 5125,
      "count": 3456,
      "type": "SCALAR"
    },
    {
      "bufferView": 1,
      "byteOffset": 165888,
      "componentType": 5126,
      "count": 2304,
      "max": [
        1.0099999904632568,
        1.0100001096725464,
        0.010000000707805157
      ],
      "min": [
        -1.0099999904632568,
        -1.0100001096725464,
        -0.010000000707805157
      ],
      "type": "VEC3"
    },
    {
      "bufferView": 1,
      "byteOffset": 193536,
      "componentType": 5126,
      "count": 2304,
      "max": [
        0.9639959931373596,
        0.9639955163002014,
        0.9657881259918213
      ],
      "min": [
        -0.9639961123466492,
        -0.9639958143234253,
        -0.9657881259918213
      ],
      "type": "VEC3"
    },
    {
      "bufferView": 0,
      "byteOffset": 41472,
      "componentType": 5125,
      "count": 3456,
      "type": "SCALAR"
    },
    {
      "bufferView": 1,
      "byteOffset": 221184,
      "componentType": 5126,
      "count": 2304,
      "max": [
        1.0099999904632568,
        1.0100001096725464,
        0.010000000707805157
      ],
      "min": [
        -1.0099999904632568,
        -1.0100001096725464,
        -0.010000000707805157
      ],
      "type": "VEC3"
    },
    {
      "bufferView": 1,
      "byteOffset": 248832,
      "componentType": 5126,
      "count": 2304,
      "max": [
        0.9639959931373596,
        0.9639955163002014,
        0.9657881259918213
      ],
      "min": [
        -0.9639961123466492,
        -0.9639958143234253,
        -0.9657881259918213
      ],
      "type": "VEC3"
    },
    {
      "bufferView": 0,
      "byteOffset": 55296,
      "componentType": 5125,
      "count": 3456,
      "type": "SCALAR"
    },
    {
      "bufferView": 1,
      "byteOffset": 276480,
      "componentType": 5126,
      "count": 2304,
      "max": [
        1.0099999904632568,
        1.0100001096725464,
        0.010000000707805157
      ],
      "min": [
        -1.0099999904632568,
        -1.0100001096725464,
        -0.010000000707805157
      ],
      "type": "VEC3"
    },
    {
      "bufferView": 1,
      "byteOffset": 304128,
      "componentType": 5126,
      "count": 2304,
      "max": [
        0.9639959931373596,
        0.9639955163002014,
        0.9657881259918213
      ],
      "min": [
        -0.9639961123466492,
        -0.9639958143234253,
        -0.9657881259918213
      ],
      "type": "VEC3"
    },
    {
      "bufferView": 0,
      "byteOffset": 69120,
      "componentType": 5125,
      "count": 3456,
      "type": "SCALAR"
    },
    {
      "bufferView": 1,
      "byteOffset": 331776,
      "componentType": 5126,
      "count": 2304,
      "max": [
        1.0099999904632568,
        1.0100001096725464,
        0.010000000707805157
      ],
      "min": [
        -1.0099999904632568,
        -1.0100001096725464,
        -0.010000000707805157
      ],
      "type": "VEC3"
    },
    {
      "bufferView": 1,
      "byteOffset": 359424,
      "componentType": 5126,
      "count": 2304,
      "max": [
        0.9639959931373596,
        0.9639955163002014,
        0.9657881259918213
      ],
      "min": [
        -0.9639961123466492,
        -0.9639958143234253,
        -0.9657881259918213
      ],
      "type": "VEC3"
    },
    {
      "bufferView": 0,
      "byteOffset": 82944,
      "componentType": 5125,
      "count": 3456,
      "type": "SCALAR"
    },
    {
      "bufferView": 1,
      "byteOffset": 387072,
      "componentType": 5126,
      "count": 2304,
      "max": [
        1.0099999904632568,
        1.0100001096725464,
        0.010000000707805157
      ],
      "min": [
        -1.0099999904632568,
        -1.0100001096725464,
        -0.010000000707805157
      ],
      "type": "VEC3"
    },
    {
      "bufferView": 1,
      "byteOffset": 414720,
      "componentType": 5126,
      "count": 2304,
      "max": [
        0.9639959931373596,
        0.9639955163002014,
        0.9657881259918213
      ],
      "min": [
        -0.9639961123466492,
        -0.9639958143234253,
        -0.9657881259918213
      ],
      "type": "VEC3"
    },
    {
      "bufferView": 0,
      "byteOffset": 96768,
      "componentType": 5125,
      "count": 3456,
      "type": "SCALAR"
    },
    {
      "bufferView": 1,
      "byteOffset": 442368,
      "componentType": 5126,
      "count": 2304,
      "max": [
        1.0099999904632568,
        1.0100001096725464,
        0.010000000707805157
      ],
      "min": [
        -1.0099999904632568,
        -1.0100001096725464,
        -0.010000000707805157
      ],
      "type": "VEC3"
    },
    {
      "bufferView": 1,
      "byteOffset": 470016,
      "componentType": 5126,
      "count": 2304,
      "max": [
        0.9639959931373596,
        0.9639955163002014,
        0.9657881259918213
      ],
      "min": [
        -0.9639961123466492,
        -0.9639958143234253,
        -0.9657881259918213
      ],
      "type": "VEC3"
    },
    {
      "bufferView": 0,
      "byteOffset": 110592,
      "componentType": 5125,
      "count": 3456,
      "type": "SCALAR"
    },
    {
      "bufferView": 1,
      "byteOffset": 497664,
      "componentType": 5126,
      "count": 2304,
      "max": [
        1.0099999904632568,
        1.0100001096725464,
        0.010000000707805157
      ],
      "min": [
        -1.0099999904632568,
        -1.0100001096725464,
        -0.010000000707805157
      ],
      "type": "VEC3"
    },
    {
      "bufferView": 1,
      "byteOffset": 525312,
      "componentType": 5126,
      "count": 2304,
      "max": [
        0.9639959931373596,
        0.9639955163002014,
        0.9657881259918213
      ],
      "min": [
        -0.9639961123466492,
        -0.9639958143234253,
        -0.9657881259918213
      ],
      "type": "VEC3"
    },
    {
      "bufferView": 0,
      "byteOffset": 124416,
      "componentType": 5125,
      "count": 3456,
      "type": "SCALAR"
    },
    {
      "bufferView": 1,
      "byteOffset": 552960,
      "componentType": 5126,
      "count": 2304,
      "max": [
        1.0099999904632568,
        1.0100001096725464,
        0.010000000707805157
      ],
      "min": [
        -1.0099999904632568,
        -1.0100001096725464,
        -0.010000000707805157
      ],
      "type": "VEC3"
    },
    {
      "bufferView": 1,
      "byteOffset": 580608,
      "componentType": 5126,
      "count": 2304,
      "max": [
        0.9639959931373596,
        0.9639955163002014,
        0.9657881259918213
      ],
      "min": [
        -0.9639961123466492,
        -0.9639958143234253,
        -0.9657881259918213
      ],
      "type": "VEC3"
    },
    {
      "bufferView": 0,
      "byteOffset": 138240,
      "componentType": 5125,
      "count": 3456,
      "type": "SCALAR"
    },
    {
      "bufferView": 1,
      "byteOffset": 608256,
      "componentType": 5126,
      "count": 2304,
      "max": [
        1.0099999904632568,
        1.0100001096725464,
        0.010000000707805157
      ],
      "min": [
        -1.0099999904632568,
        -1.0100001096725464,
        -0.010000000707805157
      ],
      "type": "VEC3"
    },
    {
      "bufferView": 1,
      "byteOffset": 635904,
      "componentType": 5126,
      "count": 2304,
      "max": [
        0.9639959931373596,
        0.9639955163002014,
        0.9657881259918213
      ],
      "min": [
        -0.9639961123466492,
        -0.9639958143234253,
        -0.9657881259918213
      ],
      "type": "VEC3"
    },
    {
      "bufferView": 0,
      "byteOffset": 152064,
      "componentType": 5125,
      "count": 3456,
      "type": "SCALAR"
    },
    {
      "bufferView": 1,
      "byteOffset": 663552,
      "componentType": 5126,
      "count": 2304,
      "max": [
        1.0099999904632568,
        1.0100001096725464,
        0.010000000707805157
      ],
      "min": [
        -1.0099999904632568,
        -1.0100001096725464,
        -0.010000000707805157
      ],
      "type": "VEC3"
    },
    {
      "bufferView": 1,
      "byteOffset": 691200,
      "componentType": 5126,
      "count": 2304,
      "max": [
        0.9639959931373596,
        0.9639955163002014,
        0.9657881259918213
      ],
      "min": [
        -0.9639961123466492,
        -0.9639958143234253,
        -0.9657881259918213
      ],
      "type": "VEC3"
    },
    {
      "bufferView": 0,
      "byteOffset": 165888,
      "componentType": 5125,
      "count": 3456,
      "type": "SCALAR"
    }
  ],
  "asset": {
    "extras": {
      "author": "sirkitree (https://sketchfab.com/sirkitree)",
      "license": "CC-BY-4.0 (http://creativecommons.org/licenses/by/4.0/)",
      "source": "https://sketchfab.com/3d-models/sacred-geometry-egg-of-life-e810f5d749594d52adbcf54291379f9d",
      "title": "Sacred Geometry: Egg of Life"
    },
    "generator": "Sketchfab-12.66.0",
    "version": "2.0"
  },
  "bufferViews": [
    {
      "buffer": 0,
      "byteLength": 179712,
      "name": "floatBufferViews",
      "target": 34963
    },
    {
      "buffer": 0,
      "byteLength": 718848,
      "byteOffset": 179712,
      "byteStride": 12,
      "name": "floatBufferViews",
      "target": 34962
    }
  ],
  "buffers": [
    {
      "byteLength": 898560,
      "uri": "scene.bin"
    }
  ],
  "materials": [
    {
      "doubleSided": true,
      "name": "Scene_-_Root",
      "pbrMetallicRoughness": {
        "metallicFactor": 0.0,
        "roughnessFactor": 0.6
      }
    }
  ],
  "meshes": [
    {
      "name": "Torus__0",
      "primitives": [
        {
          "attributes": {
            "NORMAL": 1,
            "POSITION": 0
          },
          "indices": 2,
          "material": 0,
          "mode": 4
        }
      ]
    },
    {
      "name": "Torus.001__0",
      "primitives": [
        {
          "attributes": {
            "NORMAL": 4,
            "POSITION": 3
          },
          "indices": 5,
          "material": 0,
          "mode": 4
        }
      ]
    },
    {
      "name": "Torus.002__0",
      "primitives": [
        {
          "attributes": {
            "NORMAL": 7,
            "POSITION": 6
          },
          "indices": 8,
          "material": 0,
          "mode": 4
        }
      ]
    },
    {
      "name": "Torus.003__0",
      "primitives": [
        {
          "attributes": {
            "NORMAL": 10,
            "POSITION": 9
          },
          "indices": 11,
          "material": 0,
          "mode": 4
        }
      ]
    },
    {
      "name": "Torus.004__0",
      "primitives": [
        {
          "attributes": {
            "NORMAL": 13,
            "POSITION": 12
          },
          "indices": 14,
          "material": 0,
          "mode": 4
        }
      ]
    },
    {
      "name": "Torus.005__0",
      "primitives": [
        {
          "attributes": {
            "NORMAL": 16,
            "POSITION": 15
          },
          "indices": 17,
          "material": 0,
          "mode": 4
        }
      ]
    },
    {
      "name": "Torus.006__0",
      "primitives": [
        {
          "attributes": {
            "NORMAL": 19,
            "POSITION": 18
          },
          "indices": 20,
          "material": 0,
          "mode": 4
        }
      ]
    },
    {
      "name": "Torus.007__0",
      "primitives": [
        {
          "attributes": {
            "NORMAL": 22,
            "POSITION": 21
          },
          "indices": 23,
          "material": 0,
          "mode": 4
        }
      ]
    },
    {
      "name": "Torus.008__0",
      "primitives": [
        {
          "attributes": {
            "NORMAL": 25,
            "POSITION": 24
          },
          "indices": 26,
          "material": 0,
          "mode": 4
        }
      ]
    },
    {
      "name": "Torus.010__0",
      "primitives": [
        {
          "attributes": {
            "NORMAL": 28,
            "POSITION": 27
          },
          "indices": 29,
          "material": 0,
          "mode": 4
        }
      ]
    },
    {
      "name": "Torus.011__0",
      "primitives": [
        {
          "attributes": {
            "NORMAL": 31,
            "POSITION": 30
          },
          "indices": 32,
          "material": 0,
          "mode": 4
        }
      ]
    },
    {
      "name": "Torus.014__0",
      "primitives": [
        {
          "attributes": {
            "NORMAL": 34,
            "POSITION": 33
          },
          "indices": 35,
          "material": 0,
          "mode": 4
        }
      ]
    },
    {
      "name": "Torus.017__0",
      "primitives": [
        {
          "attributes": {
            "NORMAL": 37,
            "POSITION": 36
          },
          "indices": 38,
          "material": 0,
          "mode": 4
        }
      ]
    }
  ],
  "nodes": [
    {
      "children": [
        1
      ],
      "matrix": [
        1.0,
        0.0,
        0.0,
        0.0,
        0.0,
        2.220446049250313e-16,
        -1.0,
        0.0,
        0.0,
        1.0,
        2.220446049250313e-16,
        0.0,
        0.0,
        0.0,
        0.0,
        1.0
      ],
      "name": "Sketchfab_model"
    },
    {
      "children": [
        2
      ],
      "matrix": [
        1.0,
        0.0,
        0.0,
        0.0,
        0.0,
        0.0,
        1.0,
        0.0,
        0.0,
        -1.0,
        0.0,
        0.0,
        0.0,
        0.0,
        0.0,
        1.0
      ],
      "name": "5549c39a90c04cc1a6de13b5cb2544d4.fbx"
    },
    {
      "children": [
        3,
        5,
        7,
        9,
        11,
        13,
        15,
        17,
        19,
        21,
        23,
        25,
        27
      ],
      "name": "RootNode"
    },
    {
      "children": [
        4
      ],
      "matrix": [
        100.0,
        0.0,
        0.0,
        0.0,
        0.0,
        -1.629206793918314e-05,
        -99.99999999999868,
        0.0,
        0.0,
        99.99999999999868,
        -1.629206793918314e-05,
        0.0,
        0.0,
        0.0,
        0.0,
        1.0
      ],
      "name": "Torus"
    },
    {
      "mesh": 0,
      "name": "Torus__0"
    },
    {
      "children": [
        6
      ],
      "matrix": [
        100.0,
        0.0,
        0.0,
        0.0,
        0.0,
        -1.629206793918314e-05,
        -99.99999999999868,
        0.0,
        0.0,
        99.99999999999868,
        -1.629206793918314e-05,
        0.0,
        100.0,
        0.0,
        0.0,
        1.0
      ],
      "name": "Torus.001"
    },
    {
      "mesh": 1,
      "name": "Torus.001__0"
    },
    {
      "children": [
        8
      ],
      "matrix": [
        100.0,
        0.0,
        0.0,
        0.0,
        -0.0,
        -1.629206793918314e-05,
        -99.99999999999868,
        0.0,
        0.0,
        99.99999999999868,
        -1.629206793918314e-05,
        0.0,
        -100.0,
        0.0,
        0.0,
        1.0
      ],
      "name": "Torus.002"
    },
    {
      "mesh": 2,
      "name": "Torus.002__0"
    },
    {
      "children": [
        10
      ],
      "matrix": [
        100.0,
        0.0,
        0.0,
        0.0,
        -0.0,
        -1.629206793918314e-05,
        -99.99999999999868,
        0.0,
        0.0,
        99.99999999999868,
        -1.629206793918314e-05,
        0.0,
        -50.059383392333984,
        0.0,
        -86.60966491699219,
        1.0
      ],
      "name": "Torus.003"
    },
    {
      "mesh": 3,
      "name": "Torus.003__0"
    },
    {
      "children": [
        12
      ],
      "matrix": [
        100.0,
        0.0,
        0.0,
        0.0,
        0.0,
        -1.629206793918314e-05,
        -99.99999999999868,
        0.0,
        0.0,
        99.99999999999868,
        -1.629206793918314e-05,
        0.0,
        49.940616607666016,
        0.0,
        -86.60966491699219,
        1.0
      ],
      "name": "Torus.004"
    },
    {
      "mesh": 4,
      "name": "Torus.004__0"
    },
    {
      "children": [
        14
      ],
      "matrix": [
        100.0,
        0.0,
        0.0,
        0.0,
        0.0,
        -1.629206793918314e-05,
        -99.99999999999868,
        0.0,
        0.0,
        99.99999999999868,
        -1.629206793918314e-05,
        0.0,
        49.940616607666016,
        0.0,
        86.59341430664063,
        1.0
      ],
      "name": "Torus.005"
    },
    {
      "mesh": 5,
      "name": "Torus.005__0"
    },
    {
      "children": [
        16
      ],
      "matrix": [
        100.0,
        0.0,
        0.0,
        0.0,
        -0.0,
        -1.629206793918314e-05,
        -99.99999999999868,
        0.0,
        0.0,
        99.99999999999868,
        -1.629206793918314e-05,
        0.0,
        -50.059383392333984,
        0.0,
        86.59341430664063,
        1.0
      ],
      "name": "Torus.006"
    },
    {
      "mesh": 6,
      "name": "Torus.006__0"
    },
    {
      "children": [
        18
      ],
      "matrix": [
        100.0,
        0.0,
        0.0,
        0.0,
        0.0,
        -1.629206793918314e-05,
        -99.99999999999868,
        0.0,
        0.0,
        99.99999999999868,
        -1.629206793918314e-05,
        0.0,
        149.94061279296875,
        0.0,
        86.59341430664063,
        1.0
      ],
      "name": "Torus.007"
    },
    {
      "mesh": 7,
      "name": "Torus.007__0"
    },
    {
      "children": [
        20
      ],
      "matrix": [
        100.0,
        0.0,
        0.0,
        0.0,
        0.0,
        -1.629206793918314e-05,
        -99.99999999999868,
        0.0,
        0.0,
        99.99999999999868,
        -1.629206793918314e-05,
        0.0,
        149.94061279296875,
        0.0,
        -86.60966491699219,
        1.0
      ],
      "name": "Torus.008"
    },
    {
      "mesh": 8,
      "name": "Torus.008__0"
    },
    {
      "children": [
        22
      ],
      "matrix": [
        100.0,
        0.0,
        0.0,
        0.0,
        -0.0,
        -1.629206793918314e-05,
        -99.99999999999868,
        0.0,
        0.0,
        99.99999999999868,
        -1.629206793918314e-05,
        0.0,
        -150.0593719482422,
        0.0,
        86.59341430664063,
        1.0
      ],
      "name": "Torus.010"
    },
    {
      "mesh": 9,
      "name": "Torus.010__0"
    },
    {
      "children": [
        24
      ],
      "matrix": [
        100.0,
        0.0,
        0.0,
        0.0,
        -0.0,
        -1.629206793918314e-05,
        -99.99999999999868,
        0.0,
        0.0,
        99.99999999999868,
        -1.629206793918314e-05,
        0.0,
        -150.0593719482422,
        0.0,
        -86.60966491699219,
        1.0
      ],
      "name": "Torus.011"
    },
    {
      "mesh": 10,
      "name": "Torus.011__0"
    },
    {
      "children": [
        26
      ],
      "matrix": [
        100.0,
        0.0,
        0.0,
        0.0,
        -0.0,
        -1.629206793918314e-05,
        -99.99999999999868,
        0.0,
        0.0,
        99.99999999999868,
        -1.629206793918314e-05,
        0.0,
        -0.0628352165222168,
        0.0,
        -173.2041015625,
        1.0
      ],
      "name": "Torus.014"
    },
    {
      "mesh": 11,
      "name": "Torus.014__0"
    },
    {
      "children": [
        28
      ],
      "matrix": [
        100.0,
        0.0,
        0.0,
        0.0,
        -0.0,
        -1.629206793918314e-05,
        -99.99999999999868,
        0.0,
        0.0,
        99.99999999999868,
        -1.629206793918314e-05,
        0.0,
        -0.0628352165222168,
        0.0,
        173.17855834960938,
        1.0
      ],
      "name": "Torus.017"
    },
    {
      "mesh": 12,
      "name": "Torus.017__0"
    }
  ],
  "scene": 0,
  "scenes": [
    {
      "name": "Sketchfab_Scene",
      "nodes": [
        0
      ]
    }
  ]
}
